<svg height="297mm" viewBox="0 0 744.09448819 1052.3622047" width="210mm" xmlns="http://www.w3.org/2000/svg"><path d="m189.04521 322.18362h400v400h-400z" fill="none"/><path d="m565.61261 447.14353c-20.29815-47.34921-54.79102-81.78485-102.50922-102.14764-23.85002-10.17733-48.62537-15.37582-74.72998-15.37582-26.09959 0-50.90202 5.14939-74.72558 15.37582-47.32255 20.30864-82.17968 54.7223-102.51367 102.14764-10.18933 23.75991-15.15598 48.65207-15.15598 74.76593 0 26.11903 4.96665 51.21756 15.15598 74.98238 20.33399 47.42542 55.1905 82.04547 102.51367 102.35912 23.82356 10.22648 48.62534 15.3709 74.72558 15.3709 26.10461 0 50.87996-5.19854 74.72998-15.3709 47.71883-20.36331 82.21171-55.01439 102.50922-102.35912 10.2208-23.84106 15.36736-48.86335 15.36736-74.98238 0-26.11386-5.14656-50.92555-15.36736-74.76593zm-241.23191-81.71749c-16.6293 21.05955-28.83488 47.80732-36.62615 80.24331h-50.3088c18.5235-36.01682 49.68037-64.87194 86.93495-80.24331zm-105.03756 156.48342c0-18.32276 2.94599-36.01232 8.63109-53.07316h55.15025c-2.73525 17.9004-4.00098 35.59513-4.00098 53.07316 0 17.27166 1.26633 34.75533 4.00098 52.65595h-55.5724c-5.4737-17.06083-8.20894-34.75039-8.20894-52.65595zm18.10261 75.82265h50.30945c7.79128 33.06493 19.99743 60.23506 36.62613 81.08803-37.88871-15.79797-69.04495-44.65263-86.93558-81.08803zm139.13979 91.61592c-13.68329-3.99943-26.52231-14.10873-38.09882-30.53565-11.57708-16.43141-20.41892-36.85778-26.52235-61.08027h64.62117zm0-114.78262h-69.88471c-2.73906-18.74582-4.2124-36.22903-4.2124-52.65595 0-17.68957 1.47273-35.3836 4.63451-53.07316h69.46199v105.72911zm0-128.89557h-64.62117c6.52492-24.01151 15.41646-44.19492 26.94449-60.44689 11.62616-16.39548 23.99404-26.53691 37.67732-30.32925v90.77614zm162.92746 0h-50.31001c-7.78687-32.43648-19.99684-59.18425-36.62615-80.24317 37.25964 15.37074 68.41204 44.22586 86.93616 80.24317zm-139.14037-90.77614c13.6833 3.79234 26.05052 13.93377 37.67733 30.32925 11.53181 16.25197 20.41893 36.43538 26.94382 60.44689h-64.62115zm0 113.9426h69.46199c3.16115 17.68956 4.6345 35.38359 4.6345 53.07316 0 16.42763-1.47335 33.91013-4.2124 52.65595h-69.88409v-105.72913zm0 220.51173v-91.61592h64.62115c-6.31351 24.22249-15.27237 44.56768-26.7331 61.08027-11.48714 16.55282-23.99401 26.74775-37.88805 30.53565zm52.20484-10.52789c16.6293-20.85297 28.8393-48.0231 36.62613-81.08803h50.31006c-17.89127 36.4354-49.04874 65.29006-86.93619 81.08803zm96.82859-104.25473h-55.57238c2.73906-17.90108 4.001-35.38429 4.001-52.65595 0-17.47803-1.26194-35.17206-4.001-53.07316h55.15027c5.68504 17.06012 8.63106 34.74969 8.63106 53.07316-.00061 17.90556-2.73463 35.59512-8.20895 52.65595z" fill="#99b000"/></svg>